<?xml version="1.0" encoding="utf-8"?>
<!-- Generator: Adobe Illustrator 22.0.1, SVG Export Plug-In . SVG Version: 6.00 Build 0)  -->
<svg version="1.1" id="Layer_1" xmlns="http://www.w3.org/2000/svg" xmlns:xlink="http://www.w3.org/1999/xlink" x="0px" y="0px"
	 viewBox="0 0 48 40" style="enable-background:new 0 0 48 40;" xml:space="preserve">
<style type="text/css">
	.st0{fill:#FFFFFF;}
	.st1{fill:url(#SVGID_1_);}
</style>
<title>icon-vip</title>
<g id="Layer_2_1_">
	<g id="Capa_1">
		<path class="st0" d="M-59.8,38.4c0,0.9,0.7,1.6,1.6,1.6h36.6c0.9,0,1.6-0.7,1.6-1.6v-6.7h-39.7V38.4z"/>
		<path class="st0" d="M-18.9,10.4c-1.6,0-2.9,1.3-2.9,2.9c0,0,0,0,0,0c0,0.5,0.1,1,0.4,1.5l-2.6,2.6c-0.7-2.2-1.2-4.5-1.3-6.8
			c1.4-0.9,1.7-2.7,0.9-4s-2.7-1.7-4-0.9c-0.8,0.5-1.4,1.5-1.3,2.5c0,0.7,0.3,1.4,0.7,1.9c-1.6,2.6-3.4,5.1-5.5,7.4
			c-1.5-4-2.7-8.1-3.6-12.3c0.6-0.6,1-1.4,1-2.2c0.1-1.5-1.1-2.9-2.6-2.9c-0.1,0-0.1,0-0.2,0c-1.6,0-2.9,1.3-2.9,2.9c0,0,0,0,0,0
			c0,0.9,0.3,1.7,1,2.2c-0.9,4.2-2.3,9.6-3.7,12.3c-2-2.3-3.9-4.7-5.5-7.4c0.5-0.5,0.7-1.2,0.7-1.9c0.1-1.5-1-2.8-2.5-2.9
			c-0.1,0-0.2,0-0.3,0c-1.6,0-2.9,1.3-3,2.9c0,0,0,0,0,0c0,1,0.5,1.9,1.4,2.4c-0.1,2.3-0.5,4.6-1.3,6.8l-2.6-2.6
			c0.2-0.5,0.4-1,0.4-1.5c0-1.6-1.3-2.9-2.9-2.9c-1.6,0-2.9,1.3-2.9,2.9c0,1.1,0.6,2.2,1.7,2.7c0.8,4.4,2,10.5,2.3,13.4h40
			c0.3-2.7,1.5-8.8,2.3-13.4c1.1-0.4,1.7-1.5,1.7-2.6C-16,11.8-17.3,10.4-18.9,10.4C-18.9,10.4-18.9,10.4-18.9,10.4z M-39.9,27
			c-1.6,0-2.9-1.2-2.9-2.8c0-0.1,0-0.1,0-0.2c0-1.6,1.3-2.9,2.9-2.9S-37,22.4-37,24c0,1.6-1.2,2.9-2.8,3C-39.8,27-39.9,27-39.9,27
			L-39.9,27z"/>
	</g>
</g>
<linearGradient id="SVGID_1_" gradientUnits="userSpaceOnUse" x1="6.015" y1="39.2645" x2="41.9849" y2="3.2945">
	<stop  offset="0" style="stop-color:#DD9827"/>
	<stop  offset="0.56" style="stop-color:#FFE64C"/>
	<stop  offset="1" style="stop-color:#F0B939"/>
</linearGradient>
<path class="st1" d="M42.9,35.4c0,1,0,1.9,0,2.9c-12.6,0-25.2,0-37.9,0c0-1,0-1.9,0-2.9C17.7,35.4,30.3,35.4,42.9,35.4L42.9,35.4z
	 M18.6,4.8c2.2-4.1,8.2-4.2,10.5-0.2C30.7,7.3,30,11,27,12.8l2.8,10.2l8.5-5.5c-0.2-4.5,5.3-9.1,9.7-8.1l-5.1,24.3H5L0,9.3
	c4.9-1.2,10.2,4.4,9.2,8.1l8.7,5.5l2.8-10.1C18,11.4,17.2,7.5,18.6,4.8z"/>
</svg>
