<?xml version="1.0" encoding="utf-8"?>
<!-- Generator: Adobe Illustrator 24.3.0, SVG Export Plug-In . SVG Version: 6.00 Build 0)  -->
<svg version="1.1" id="Layer_1" xmlns="http://www.w3.org/2000/svg" xmlns:xlink="http://www.w3.org/1999/xlink" x="0px" y="0px"
	 viewBox="0 0 42 40" style="enable-background:new 0 0 42 40;" xml:space="preserve">
<style type="text/css">
	.st0{fill:url(#SVGID_1_);}
</style>
<linearGradient id="SVGID_1_" gradientUnits="userSpaceOnUse" x1="21" y1="36.9" x2="21" y2="3.1">
	<stop  offset="0" style="stop-color:#CA772A"/>
	<stop  offset="0.5" style="stop-color:#F8E887"/>
	<stop  offset="1" style="stop-color:#ECC146"/>
</linearGradient>
<path class="st0" d="M21,36.9c9.3,0,16.9-7.6,16.9-16.9S30.3,3.1,21,3.1S4.1,10.7,4.1,20S11.7,36.9,21,36.9z M20.3,14.3
	c0.4-0.3,1-0.3,1.5,0l4.5,3.2c0.4,0.3,0.6,0.9,0.4,1.4l-1.7,5.3c-0.2,0.5-0.7,0.9-1.2,0.9h-5.5c-0.5,0-1-0.4-1.2-0.9l-1.7-5.3
	c-0.2-0.5,0-1.1,0.4-1.4L20.3,14.3z M9.5,10.2C11.1,8.4,13,6.9,15.3,6l-0.4,0.7c-0.2,0.4-0.1,0.9,0.3,1.2l5,2.9
	c0.5,0.3,1.3,0.2,1.7,0l5-2.9c0.4-0.3,0.5-0.8,0.3-1.2L26.7,6c2.3,0.9,4.3,2.4,5.9,4.3l-0.4-0.1c-0.5-0.1-0.9,0.2-1,0.6L30,16.4
	c-0.1,0.5,0.2,1.3,0.5,1.7l4.3,3.8c0.4,0.3,0.9,0.2,1.2-0.1l0.1-0.1c-0.3,2.4-1.1,4.7-2.4,6.6L33.4,27c0-0.5-0.5-0.8-0.9-0.8
	l-5.7,0.7c-0.5,0.1-1.2,0.6-1.4,1l-2.2,5.3c-0.2,0.4,0.1,0.9,0.5,1.1l0.8,0.4c-1.1,0.3-2.3,0.4-3.5,0.4c-1.3,0-2.5-0.2-3.7-0.5
	l0.8-0.3c0.4-0.2,0.7-0.7,0.5-1.1l-2.2-5.3c-0.2-0.5-0.9-1-1.4-1l-5.7-0.7c-0.5,0-0.9,0.3-0.9,0.8l-0.2,1c-1.2-2-2-4.3-2.2-6.7
	l0.4,0.4c0.3,0.4,0.8,0.4,1.2,0.1l4.3-3.8c0.4-0.4,0.6-1.1,0.5-1.7l-1.2-5.6c-0.1-0.5-0.6-0.7-1-0.6L9.5,10.2z"/>
</svg>
