<?xml version="1.0" encoding="utf-8"?>
<!-- Generator: Adobe Illustrator 24.3.0, SVG Export Plug-In . SVG Version: 6.00 Build 0)  -->
<svg version="1.1" id="Layer_1" xmlns="http://www.w3.org/2000/svg" xmlns:xlink="http://www.w3.org/1999/xlink" x="0px" y="0px"
	 viewBox="0 0 42 40" style="enable-background:new 0 0 42 40;" xml:space="preserve">
<style type="text/css">
	.st0{fill:url(#SVGID_1_);}
</style>
<linearGradient id="SVGID_1_" gradientUnits="userSpaceOnUse" x1="21" y1="36.3291" x2="21" y2="3.6709">
	<stop  offset="0" style="stop-color:#CA772A"/>
	<stop  offset="0.5" style="stop-color:#F8E887"/>
	<stop  offset="1" style="stop-color:#ECC146"/>
</linearGradient>
<path class="st0" d="M30.9,3.7H11.1c-3.9,0-7,3.2-7,7v14.1c0,3.9,3.2,7,7,7h6.3l3.5,4.5l3.5-4.5h6.3c3.9,0,7-3.2,7-7V10.7
	C37.9,6.8,34.7,3.7,30.9,3.7z M22.1,26.3h-2.7v-2.6h2.7V26.3z M23.6,18.1c-1.3,0.8-1.9,1.8-1.8,3v0.7h-2.2v-0.8
	c-0.1-1.6,0.7-2.9,2.1-3.9c1.5-1.1,2.3-2.2,2.2-3.3c-0.2-1.5-1-2.4-2.6-2.5c-1.9,0-3.1,1.1-3.6,3.3L15.3,14c0.7-3.3,2.8-4.9,6.3-4.8
	c3,0.2,4.7,1.6,5,4.3C26.8,15.2,25.8,16.8,23.6,18.1L23.6,18.1z"/>
</svg>
