<?xml version="1.0" encoding="utf-8"?>
<!-- Generator: Adobe Illustrator 22.0.1, SVG Export Plug-In . SVG Version: 6.00 Build 0)  -->
<svg version="1.1" id="Layer_1" xmlns="http://www.w3.org/2000/svg" xmlns:xlink="http://www.w3.org/1999/xlink" x="0px" y="0px"
	 viewBox="0 0 40 40" style="enable-background:new 0 0 40 40;" xml:space="preserve">
<style type="text/css">
	.st0{fill:#FFFFFF;}
	.st1{fill:url(#SVGID_1_);}
</style>
<title>icon-sports</title>
<g id="Layer_2_1_">
	<g id="Capa_1">
		<path class="st0" d="M-27.5,0c-11,0-20,9-20,20s9,20,20,20s20-9,20-20S-16.5,0-27.5,0z M-26.5,5.8l4.1-3c3.9,1.1,7.2,3.5,9.5,6.8
			l-1.6,4.8l-5.5,1.8l-6.5-4.6V5.8z M-32.7,3l4,3v5.9l-6.4,4.6l-5.6-1.8l-1.6-4.7C-39.9,6.5-36.6,4.1-32.7,3z M-41.8,30.6
			c-2.3-3.1-3.6-6.8-3.6-10.6v-0.5l4.1-3l5.8,1.9l2.4,7.3l-3.6,5L-41.8,30.6z M-21.7,37c-1.9,0.6-3.8,0.9-5.8,1c-2,0-4-0.3-5.9-1
			l-1.6-5l3.6-5h7.6l3.7,5L-21.7,37z M-18.4,30.7l-3.5-4.8l2.4-7.5l5.7-1.9l4.1,3v0.3c0,3.9-1.3,7.6-3.6,10.7L-18.4,30.7z"/>
	</g>
</g>
<g>
	<path class="st0" d="M70.3,5.1V11l-8,6L62,16.9l-4.5-2.2l-0.8-8.5c2-2.1,4.1-3.5,6.3-4.5L70.3,5.1z"/>
	<path class="st0" d="M64.7,28.7l-3,3.1l-7.4-1.3c-1.5-2.3-2.4-4.8-2.8-7.5l5.4-6.7l4.8,2.3L64.7,28.7z"/>
	<path class="st0" d="M91,23c-0.4,2.8-1.4,5.3-2.8,7.5l-7.4,1.3l-3-3.2l2.9-9.9l5.2-1.9L91,23z"/>
	<path class="st0" d="M87.5,8.4l-0.3,7.1l4,4.9C91.3,15.9,90,11.8,87.5,8.4z"/>
	<path class="st0" d="M79.5,33.1L78,38.8c-4.3,1.5-9.1,1.6-13.5,0L63,33.1l3.1-3.2h10.3L79.5,33.1z"/>
	<polygon class="st0" points="63.5,18.4 66.4,28.1 76.1,28.1 79,18.4 71.2,12.6 	"/>
	<path class="st0" d="M85.8,6.3l-0.4,8.9L83.2,16l-3,1.1l-8-6v-6l7.3-3.4C81.8,2.8,84,4.4,85.8,6.3z"/>
	<path class="st0" d="M80.1,37.9c2.5-1.3,4.8-3.1,6.6-5.3l-5.5,1L80.1,37.9z"/>
	<path class="st0" d="M77,0.9c-3.8-1.1-7.8-1.1-11.6,0l5.8,2.7L77,0.9z"/>
	<path class="st0" d="M55.8,32.7c1.8,2.2,4.1,4,6.6,5.3l-1.1-4.3L55.8,32.7z"/>
	<path class="st0" d="M55.1,8.2c-2.5,3.4-4,7.7-3.9,12.3l4.5-5.5L55.1,8.2z"/>
</g>
<linearGradient id="SVGID_1_" gradientUnits="userSpaceOnUse" x1="10.7031" y1="29.3031" x2="29.2906" y2="10.7156">
	<stop  offset="0" style="stop-color:#DD9827"/>
	<stop  offset="0.56" style="stop-color:#FFE64C"/>
	<stop  offset="1" style="stop-color:#F0B939"/>
</linearGradient>
<path class="st1" d="M20,16.7c-1.8,0-3.3,1.5-3.3,3.3s1.5,3.3,3.3,3.3s3.3-1.5,3.3-3.3S21.8,16.7,20,16.7z M33,18.4
	c-0.7-6-5.4-10.7-11.4-11.4V3.6h-3.3V7C12.4,7.7,7.7,12.4,7,18.4H3.6v3.3H7c0.7,5.9,5.4,10.6,11.4,11.4v3.4h3.3V33
	c5.9-0.7,10.6-5.4,11.4-11.4h3.4v-3.3L33,18.4L33,18.4z M29.7,21.6c-0.7,4.1-3.9,7.4-8.1,8.1v-3.1h-3.3v3.1
	c-4.1-0.7-7.4-3.9-8.1-8.1h3.1v-3.3h-3.1c0.7-4.1,3.9-7.4,8.1-8.1v3.1h3.3v-3.1c4.1,0.7,7.4,3.9,8.1,8.1h-3.1v3.3H29.7z M20,16.7
	c-1.8,0-3.3,1.5-3.3,3.3s1.5,3.3,3.3,3.3s3.3-1.5,3.3-3.3S21.8,16.7,20,16.7z"/>
</svg>
