<?xml version="1.0" encoding="utf-8"?>
<!-- Generator: Adobe Illustrator 24.3.0, SVG Export Plug-In . SVG Version: 6.00 Build 0)  -->
<svg version="1.1" id="Layer_1" xmlns="http://www.w3.org/2000/svg" xmlns:xlink="http://www.w3.org/1999/xlink" x="0px" y="0px"
	 viewBox="0 0 42 40" style="enable-background:new 0 0 42 40;" xml:space="preserve">
<style type="text/css">
	.st0{fill:url(#SVGID_1_);}
</style>
<linearGradient id="SVGID_1_" gradientUnits="userSpaceOnUse" x1="21" y1="36.9" x2="21" y2="3.1">
	<stop  offset="0" style="stop-color:#CA772A"/>
	<stop  offset="0.5" style="stop-color:#F8E887"/>
	<stop  offset="1" style="stop-color:#ECC146"/>
</linearGradient>
<path class="st0" d="M36.3,34.6l0.9-6l-4.3,2.2l1.9,3.8H36.3z M16.2,31.2l-3.8-4.4l-3.9,7.7h1.3l2.8-5.6l2.8,3.3L16.2,31.2z
	 M26.4,18.4c0.8-2.9,2.2-5.6,4-7.9l0.4-0.4h-2.4c-1.8,2.3-3.2,5-3.9,7.9C25.1,18.1,25.8,18.2,26.4,18.4z M18.1,34.6h5.8L21,30.7
	L18.1,34.6z M13.7,34.6l1.1-1.4L12.9,31l-1.8,3.6H13.7z M26.8,34.6L21,26.8l-5.8,7.8h1.5l4.4-5.8l4.4,5.8H26.8z M33.5,34.6l-3.9-7.7
	l-3.8,4.4l0.7,1l2.8-3.3l2.8,5.6H33.5z M27.2,33.1l1.1,1.4h2.6L29.1,31L27.2,33.1z M7.2,34.6l1.9-3.8l-4.3-2.2l0.9,6H7.2z
	 M12.9,19.5c0.5-0.3,1.1-0.5,1.6-0.7c-0.6-2.3-1.6-4.5-3-6.4H8.9l0.4,0.4C10.9,14.8,12.1,17.1,12.9,19.5z M12.1,24.8l4.8,5.5
	l4.1-5.4l4.1,5.4l4.8-5.5l2.5,4.9l3.9-2c-3.1-5.5-8.9-8.9-15.3-8.9S8.8,22.2,5.7,27.7l3.9,2L12.1,24.8z M37.3,35.7H4.7
	c-0.3,0-0.6,0.3-0.6,0.6v0.6h33.9v-0.6C37.9,36,37.7,35.7,37.3,35.7z M15.6,18.4c0.6-0.2,1.2-0.3,1.9-0.5c-0.7-2.9-2.1-5.6-3.9-7.9
	h-2.4l0.4,0.4C13.5,12.8,14.8,15.6,15.6,18.4z M18.7,17.8c0.4,0,0.8-0.1,1.2-0.1c-0.6-2.4-1.5-4.6-2.8-6.7l-0.5-0.9h9l-0.5,0.9
	c-1.3,2.1-2.2,4.4-2.8,6.7c0.4,0,0.8,0.1,1.2,0.1c0.8-3.1,2.2-6,4.2-8.5l0.4-0.4H14.2l0.4,0.4C16.5,11.8,17.9,14.7,18.7,17.8z
	 M23.3,6.8c0-1.6-0.9-3-2.3-3.7c-1.4,0.7-2.3,2.1-2.3,3.7v0.9h4.7V6.8z M21,17.4c0.5-2.2,1.3-4.3,2.4-6.2h-4.8
	C19.7,13.2,20.5,15.3,21,17.4z M27.5,18.8c0.6,0.2,1.1,0.4,1.6,0.7c0.8-2.4,2-4.7,3.6-6.7l0.4-0.4h-2.6
	C29.1,14.3,28.1,16.5,27.5,18.8z"/>
</svg>
