<?xml version="1.0" encoding="utf-8"?>
<!-- Generator: Adobe Illustrator 24.3.0, SVG Export Plug-In . SVG Version: 6.00 Build 0)  -->
<svg version="1.1" id="Layer_1" xmlns="http://www.w3.org/2000/svg" xmlns:xlink="http://www.w3.org/1999/xlink" x="0px" y="0px"
	 viewBox="0 0 42 40" style="enable-background:new 0 0 42 40;" xml:space="preserve">
<style type="text/css">
	.st0{fill:url(#SVGID_1_);}
</style>
<linearGradient id="SVGID_1_" gradientUnits="userSpaceOnUse" x1="21" y1="7.288" x2="21" y2="36.6893" gradientTransform="matrix(1 0 0 -1 0 42)">
	<stop  offset="0" style="stop-color:#CA772A"/>
	<stop  offset="0.5" style="stop-color:#F8E887"/>
	<stop  offset="1" style="stop-color:#ECC146"/>
</linearGradient>
<path class="st0" d="M22.5,11.4L22.5,11.4L22.5,11.4L22.5,11.4z M29.6,6.4C29.6,6.5,29.6,6.5,29.6,6.4C29.6,6.5,29.6,6.5,29.6,6.4
	C29.6,6.5,29.6,6.5,29.6,6.4L29.6,6.4C29.6,6.5,29.6,6.5,29.6,6.4z M23,13.1L23,13.1L23,13.1c0.1,0,0.1-0.1,0.2-0.1l0,0
	C23.2,13.1,23.1,13.1,23,13.1z M23,13.1C23,13.2,23,13.2,23,13.1C23,13.2,23,13.2,23,13.1L23,13.1z M37.7,8.6L37.7,8.6
	c0-0.1,0-0.2,0-0.2c0-0.1,0-0.1,0.1-0.3V8.1l0,0l0,0c0-0.1,0.1-0.2,0.1-0.3c0-0.3-0.2-0.4-0.5-0.5c-0.3-0.1-0.5-0.1-1-0.1h-0.1
	c-0.8,0.1-1.8,0.3-3.3,0.5h-0.2c-0.2-0.2-0.4-0.3-0.6-0.4c-0.6-0.4-1.5-0.8-2.4-1c-0.1-0.3-0.5-0.7-1-0.8c-0.4-0.1-0.9,0.1-1.1,0.3
	l0,0h-0.1c-2.4-0.3-4.6,0.2-5.2,1.1c-0.5,0.9-0.6,2.5-0.3,4.3c-0.3,0.3-0.4,0.8-0.3,1.2c0.1,0.4,0.4,0.9,0.9,1
	c0.3,0.7,0.6,1.4,1,1.9v0.1c-0.3,1.5-0.5,2.5-0.5,3.3v0.1v0.1c0,0.3,0,0.7,0.1,0.9c0.1,0.3,0.3,0.5,0.5,0.5c0.1,0,0.2,0,0.3-0.1l0,0
	l0,0h0.1c0.1,0,0.2-0.1,0.3-0.1c0,0,0.1,0,0.2,0l0,0h0.1c0.3,0.1,0.4,0.1,0.6,0c0.3-0.1,0.4-0.2,0.6-0.4l0,0c0,0,0.1-0.1,0.1-0.2
	l0,0l0.1-0.1l0,0c0.1-0.1,0.2-0.1,0.2-0.1h0.1c0.1,0,0.1,0,0.2-0.1c0.2-0.1,0.3-0.3,0.3-0.6c0-0.3-0.2-0.5-0.5-0.8l-0.1-0.1
	c-0.1-0.1-0.3-0.2-0.3-0.3c0.2,0.1,0.3,0.3,0.6,0.3l0.1,0.1l0.3,0.4l0.3,0.2c1,0.5,1.5,0.9,2,1.3l0,0c0.7,0.6,1.1,1.4,1.4,2.4
	c0.4,1.7,0,3.4-1,4.9c-0.4,0.6-0.9,1.1-1.4,1.4c-0.2,0.2-0.3,0.3-0.5,0.3c-0.1,0-0.2,0-0.3,0c-1-0.6-1.9-0.8-3.7-0.5l-0.4,0.1
	l0.3,0.4l0.1,0.1l0.2,0.3l0.1,0.1c0.1,0.1,0.2,0.3,0.3,0.3l0,0c0.5,0.8,1.2,1.3,2.1,1.7l-0.1,0.1c-0.3,0.5-0.5,1-0.7,1.3
	c-0.2,0.6-0.1,1.2,0.2,1.8l0.1,0.3l0.3-0.1c1.3-0.3,2.1-1,2.5-2.1c0.1-0.3,0.2-0.6,0.3-0.9v-0.1c0-0.1,0-0.2,0.1-0.3v-0.1l0.1-0.3
	v-0.1v-0.1l0,0c4.3-2,7.4-7.1,7.8-12.4c0.2-3.6-0.5-6.5-2.1-8.7l-0.1-0.1c0.3,0.3,0.5,0.5,0.7,0.8l0.1,0.1c0.2,0.3,0.4,0.4,0.8,0.5
	c0.3,0,0.5-0.1,0.6-0.3c0-0.1,0.1-0.1,0.1-0.2v-0.1c0-0.1,0-0.1,0.1-0.2l0,0c0,0,0,0,0.1-0.1l0,0l0,0c0,0,0.1-0.1,0.2-0.1l0,0
	c0.2-0.2,0.3-0.3,0.4-0.6C37.9,9.1,37.8,8.9,37.7,8.6L37.7,8.6z M23.3,13L23.3,13L23.3,13c-0.1,0.1-0.2,0.1-0.3,0.2l0,0l0,0l0,0l0,0
	l0,0c-0.3,0-0.7-0.3-0.8-0.7c-0.1-0.4,0-0.9,0.3-1l0,0l0,0l0,0l0,0l0,0l0,0c0,0,0,0,0.1,0c0.1,0,0.2,0,0.2,0
	c0.3,0.1,0.5,0.3,0.7,0.7C23.5,12.4,23.4,12.9,23.3,13z M28.6,7.1c-0.3-0.1-0.7-0.3-0.7-0.6V6.4c0-0.1,0-0.1,0-0.2V6.1l0,0
	c0,0,0,0,0-0.1c0.2-0.3,0.5-0.4,1-0.3c0.4,0.2,0.8,0.4,0.8,0.7l0,0l0,0v0.1c0,0.1,0,0.1-0.1,0.2C29.4,7,29,7.1,28.6,7.1z M33.7,21.7
	c-0.7,3.8-2.3,6.5-4.8,8.3l0,0l0,0c-0.1,0.1-0.2,0.1-0.2,0.2c-0.1,0.1-0.3,0.1-0.4-0.1c-0.1-0.1-0.1-0.3,0.1-0.4
	c0.2-0.2,0.3-0.3,0.5-0.4c0.6-0.5,1.2-1.1,1.7-1.7c1.7-2.1,2.6-4.7,2.6-7.5c0-2.2-0.6-4.3-1.7-6.1c-0.4-0.7-1-1.3-1.7-1.9l0,0
	c-0.1-0.1-0.1-0.3,0-0.3c0,0,0.1,0,0.1-0.1s0-0.1,0.1-0.2c0.1-0.1,0.3-0.1,0.4,0c0.8,0.8,1.4,1.7,1.9,2.7
	C33.7,16.3,34.2,18.9,33.7,21.7z M23,13.1C23,13.2,23,13.2,23,13.1C23,13.2,23,13.2,23,13.1L23,13.1z M23.3,13L23.3,13
	c-0.1,0.1-0.2,0.1-0.2,0.1l0,0l0,0C23.1,13.1,23.2,13.1,23.3,13L23.3,13z M22.5,11.4L22.5,11.4L22.5,11.4L22.5,11.4z M29.6,6.5
	L29.6,6.5L29.6,6.5L29.6,6.5z M23,13.1C23,13.2,23,13.2,23,13.1C23,13.2,23,13.2,23,13.1L23,13.1z M23.3,13L23.3,13
	c-0.1,0.1-0.2,0.1-0.2,0.1l0,0l0,0C23.1,13.1,23.2,13.1,23.3,13L23.3,13z M22.5,11.4L22.5,11.4L22.5,11.4L22.5,11.4z M22.5,11.4
	C22.5,11.4,22.5,11.5,22.5,11.4 M23.3,13L23.3,13c-0.1,0.1-0.2,0.1-0.2,0.1l0,0l0,0C23.1,13.1,23.2,13.1,23.3,13L23.3,13z
	 M22.5,11.4L22.5,11.4L22.5,11.4L22.5,11.4z M23,13.1C23,13.2,23,13.2,23,13.1C23,13.2,23,13.2,23,13.1L23,13.1z M29.6,6.5L29.6,6.5
	L29.6,6.5L29.6,6.5L29.6,6.5L29.6,6.5z M29.6,6.5L29.6,6.5L29.6,6.5L29.6,6.5z M12.2,33.5C12.2,33.5,12.2,33.5,12.2,33.5L12.2,33.5
	L12.2,33.5L12.2,33.5z M5.4,29.3C5.3,29.3,5.3,29.4,5.4,29.3C5.3,29.4,5.4,29.4,5.4,29.3z M20,27.5c-0.1-0.4-0.4-0.9-0.9-1
	c-0.3-0.7-0.6-1.4-1-1.9l0.1-0.3c0.3-1.4,0.4-2.4,0.5-3.1v-0.1v-0.1c0-0.4,0-0.7-0.1-1c-0.1-0.3-0.3-0.5-0.5-0.5
	c-0.1,0-0.2,0-0.3,0.1l0,0h-0.1c-0.1,0-0.2,0.1-0.3,0.1c-0.1,0-0.1,0-0.2,0l0,0h-0.1c-0.3-0.1-0.4-0.1-0.6,0
	c-0.3,0.1-0.4,0.2-0.7,0.4l0,0l-0.1,0.1l0,0l-0.1,0.1l0,0c-0.1,0.1-0.2,0.1-0.2,0.1l0,0c-0.1,0-0.1,0-0.2,0.1
	c-0.2,0.1-0.3,0.3-0.3,0.6s0.2,0.5,0.5,0.8l0.1,0.1c0.1,0.1,0.3,0.2,0.3,0.3h-0.1c-0.2-0.1-0.4-0.3-0.7-0.3l-0.1-0.1l-0.4-0.3
	c-1-0.5-1.5-0.9-1.9-1.3l0,0c-0.7-0.6-1.1-1.4-1.4-2.4c-0.4-1.7,0-3.4,1-4.9c0.4-0.6,0.9-1.1,1.4-1.4c0.2-0.2,0.3-0.3,0.5-0.3
	c0.1,0,0.2,0,0.3,0c1,0.6,1.9,0.8,3.6,0.5l0.5-0.1l-0.3-0.4l-0.3-0.4c-0.1-0.2-0.2-0.3-0.3-0.3l0,0c-0.5-0.8-1.2-1.3-2.1-1.7
	c0.3-0.5,0.6-1,0.7-1.4c0.2-0.6,0.1-1.2-0.2-1.8l-0.1-0.3l-0.3,0.1c-1.3,0.3-2.1,1-2.5,2.1c-0.1,0.3-0.2,0.6-0.3,0.9
	c0,0.1,0,0.2-0.1,0.3v0.1L13,9v0.1c0,0,0,0,0,0.1l0,0c-4.3,2-7.4,7.1-7.8,12.4c-0.2,3.6,0.5,6.5,2.1,8.7l0.1,0.1
	c-0.3-0.3-0.5-0.5-0.7-0.8l-0.1-0.1c-0.2-0.3-0.4-0.4-0.8-0.5c-0.3,0-0.5,0.1-0.6,0.3c0,0.1-0.1,0.1-0.1,0.2v0.1
	c0,0.1,0,0.1-0.1,0.2l0,0c0,0,0,0-0.1,0.1l0,0c0,0-0.1,0.1-0.2,0.1l0,0c-0.2,0.2-0.3,0.3-0.4,0.6c-0.1,0.3,0,0.3,0,0.6v0.1
	c0,0.1,0,0.2,0,0.2c0,0.1,0,0.1-0.1,0.3v0.1l0,0l0,0c0,0.1-0.1,0.2-0.1,0.3c0,0.3,0.2,0.4,0.5,0.5c0.2,0.1,0.5,0.1,0.9,0.1h0.1h0.1
	c0.8-0.1,1.8-0.3,3.3-0.5h0.2c0.2,0.2,0.4,0.3,0.6,0.4c0.6,0.4,1.5,0.8,2.4,1c0.1,0.3,0.5,0.7,1,0.8c0.4,0.1,0.9,0,1.1-0.3l0,0h0.1
	c2.4,0.3,4.6-0.2,5.2-1.1c0.5-0.9,0.6-2.5,0.3-4.3C20,28.5,20,28,20,27.5z M12,28.7c-0.1,0.1-0.3,0.1-0.4,0
	c-2.2-2.4-3.4-5.4-3.4-8.6c0-4,1.9-7.8,5-10.1c0.1-0.1,0.3-0.1,0.4,0.1c0.1,0.1,0.1,0.3-0.1,0.4c-0.1,0-0.3,0.2-0.4,0.3
	c-0.6,0.5-1.2,1.1-1.7,1.7c-1.7,2.1-2.6,4.7-2.6,7.5c0,1.6,0.3,3.1,0.9,4.5c0.5,1.4,1.4,2.7,2.4,3.8C12.1,28.3,12.1,28.6,12,28.7z
	 M14,33.7C14,33.7,14,33.8,14,33.7C14,33.8,14,33.8,14,33.7c-0.3,0.3-0.6,0.5-1,0.4c-0.4-0.1-0.8-0.3-0.8-0.7l0,0l0,0v-0.1
	c0-0.1,0-0.1,0.1-0.2c0.2-0.3,0.5-0.4,1-0.3c0.3,0.1,0.7,0.3,0.8,0.6v0.1C14,33.6,14,33.7,14,33.7z M19.3,28.6L19.3,28.6L19.3,28.6
	L19.3,28.6C19.3,28.6,19.3,28.7,19.3,28.6c-0.2,0.1-0.3,0.1-0.3,0.1c-0.3-0.1-0.5-0.3-0.6-0.7c-0.1-0.3,0-0.8,0.2-1
	c0.1-0.1,0.1-0.1,0.2-0.1l0,0l0,0l0,0c0.3,0,0.7,0.3,0.8,0.7C19.8,28,19.7,28.4,19.3,28.6z M12.2,33.5L12.2,33.5L12.2,33.5
	C12.2,33.5,12.2,33.5,12.2,33.5z M12.2,33.5L12.2,33.5L12.2,33.5C12.2,33.5,12.2,33.5,12.2,33.5L12.2,33.5z"/>
</svg>
