<?xml version="1.0" encoding="utf-8"?>
<!-- Generator: Adobe Illustrator 24.3.0, SVG Export Plug-In . SVG Version: 6.00 Build 0)  -->
<svg version="1.1" id="Layer_1" xmlns="http://www.w3.org/2000/svg" xmlns:xlink="http://www.w3.org/1999/xlink" x="0px" y="0px"
	 viewBox="0 0 42 40" style="enable-background:new 0 0 42 40;" xml:space="preserve">
<style type="text/css">
	.st0{fill:url(#SVGID_1_);}
</style>
<linearGradient id="SVGID_1_" gradientUnits="userSpaceOnUse" x1="21" y1="36.8381" x2="21" y2="3.1619">
	<stop  offset="0" style="stop-color:#CA772A"/>
	<stop  offset="0.5" style="stop-color:#F8E887"/>
	<stop  offset="1" style="stop-color:#ECC146"/>
</linearGradient>
<path class="st0" d="M34.6,5l-1.7-1.7c-0.1-0.1-0.2-0.1-0.4-0.1c-0.1,0-0.3,0.1-0.4,0.2c0,0-2.4,2.6-5.5,2.6c-1.6,0-2.7-0.7-3.8-1.3
	s-2.5-1.5-4.5-1.5c-2.7,0-5.2,1.7-6.5,2.7V3.7c0-0.3-0.2-0.6-0.6-0.6H7.8c-0.2,0-0.6,0.2-0.6,0.6v14.6c0,0.3,0.3,0.6,0.6,0.6h3.4
	c0.3,0,0.6-0.2,0.6-0.6v-2.8c0-1.6,0.7-2.2,2.2-2.2c0.4,0,1.1,0.1,1.9,0.3c1.3,0.3,3.1,0.8,5.4,0.8c1.3,0,2.2-0.1,3-0.3
	C23,16,20.9,19,18.8,20.1c-3.4,1.8-7.1,8.1-7.1,16.2c0,0.3,0.3,0.6,0.6,0.6h14.6c0.3,0,0.6-0.2,0.6-0.6c0-0.1,0-0.2-0.1-0.3
	c-0.2-0.7-1-3.9-1-7c0-3.5,6.3-21,8.3-23.2C34.8,5.5,34.8,5.2,34.6,5L34.6,5z"/>
</svg>
