<?xml version="1.0" encoding="utf-8"?>
<!-- Generator: Adobe Illustrator 22.0.1, SVG Export Plug-In . SVG Version: 6.00 Build 0)  -->
<svg version="1.1" id="Layer_1" xmlns="http://www.w3.org/2000/svg" xmlns:xlink="http://www.w3.org/1999/xlink" x="0px" y="0px"
	 viewBox="0 0 60 60" style="enable-background:new 0 0 60 60;" xml:space="preserve">
<style type="text/css">
	.st0{fill:#FFFFFF;}
</style>
<title>icon-mainmenu</title>
<g id="Layer_2_1_">
	<g id="Layer_1-2">
		<path class="st0" d="M-37,0c-16.6,0-30,13.4-30,30s13.4,30,30,30S-7,46.6-7,30S-20.4,0-37,0z M-37,57.5
			c-15.2,0-27.5-12.3-27.5-27.5S-52.2,2.5-37,2.5S-9.5,14.8-9.5,30S-21.8,57.5-37,57.5L-37,57.5z"/>
		<rect x="-51.6" y="18.5" class="st0" width="29.2" height="4.6"/>
		<rect x="-51.6" y="27.6" class="st0" width="29.2" height="4.6"/>
		<rect x="-51.6" y="36.9" class="st0" width="29.2" height="4.6"/>
	</g>
</g>
<g>
	<path class="st0" d="M100.1,22.5h33.8c1.7,0,3.1-1.4,3.1-3.1v-2.5c0-1.7-1.4-3.1-3.1-3.1h-33.8c-1.7,0-3.1,1.4-3.1,3.1v2.5
		C97,21.1,98.4,22.5,100.1,22.5z"/>
	<path class="st0" d="M97,31.3c0,1.7,1.4,3.1,3.1,3.1h33.8c1.7,0,3.1-1.4,3.1-3.1v-2.5c0-1.7-1.4-3.1-3.1-3.1h-33.8
		c-1.7,0-3.1,1.4-3.1,3.1V31.3z"/>
	<path class="st0" d="M117,0c-16.5,0-30,13.5-30,30c0,5.8,1.7,11.4,4.8,16.2c0.4,0.6,1.1,0.7,1.7,0.4c0.6-0.4,0.7-1.1,0.4-1.7
		c-2.9-4.4-4.4-9.6-4.4-14.9c0-15.2,12.3-27.5,27.5-27.5s27.5,12.3,27.5,27.5S132.2,57.5,117,57.5c-6.4,0-12.6-2.2-17.5-6.3v-5h3.1
		h31.2h0.1c1.7,0,3.1-1.4,3.1-3.1v-2.5c0-1.7-1.4-3.1-3.1-3.1h-33.8c-1.7,0-3.1,1.4-3.1,3.1v0.3l0,0V44l0,0v7.8
		c0,0.4,0.2,0.7,0.4,0.9c5.5,4.7,12.4,7.3,19.6,7.3c16.5,0,30-13.5,30-30S133.5,0,117,0z"/>
</g>
<g>
	<path class="st0" d="M50.2,18.4H9.8c-1.5,0-2.8-1.2-2.8-2.8l0,0c0-1.5,1.2-2.8,2.8-2.8h40.5c1.5,0,2.8,1.2,2.8,2.8l0,0
		C53,17.2,51.8,18.4,50.2,18.4z"/>
	<path class="st0" d="M29.4,32.9H9.8c-1.5,0-2.8-1.2-2.8-2.8l0,0c0-1.5,1.2-2.8,2.8-2.8h19.6c1.5,0,2.8,1.2,2.8,2.8l0,0
		C32.2,31.6,30.9,32.9,29.4,32.9z"/>
	<path class="st0" d="M39.6,47.1H9.8c-1.5,0-2.8-1.2-2.8-2.8l0,0c0-1.5,1.2-2.8,2.8-2.8h29.8c1.5,0,2.8,1.2,2.8,2.8l0,0
		C42.4,45.9,41.1,47.1,39.6,47.1z"/>
</g>
</svg>
