<?xml version="1.0" encoding="utf-8"?>
<!-- Generator: Adobe Illustrator 24.3.0, SVG Export Plug-In . SVG Version: 6.00 Build 0)  -->
<svg version="1.1" id="Layer_1" xmlns="http://www.w3.org/2000/svg" xmlns:xlink="http://www.w3.org/1999/xlink" x="0px" y="0px"
	 viewBox="0 0 42 40" style="enable-background:new 0 0 42 40;" xml:space="preserve">
<style type="text/css">
	.st0{fill:url(#SVGID_1_);}
</style>
<linearGradient id="SVGID_1_" gradientUnits="userSpaceOnUse" x1="4.05" y1="20" x2="37.95" y2="20">
	<stop  offset="0" style="stop-color:#CA772A"/>
	<stop  offset="0.5" style="stop-color:#F8E887"/>
	<stop  offset="1" style="stop-color:#ECC146"/>
</linearGradient>
<path class="st0" d="M34.4,14.3l-1.4-1.4c-0.5,0.3-1.1,0.4-1.7,0.4c-2.1,0-3.8-1.7-3.8-3.8c0-0.6,0.1-1.2,0.4-1.7l-0.8-0.8
	c-1.5-1.5-3.9-1.5-5.3,0l-7.2,7.2L34.4,14.3L34.4,14.3z M20.8,6.5c-1.4-0.9-3.3-0.7-4.6,0.6l-7.2,7.2h4L20.8,6.5z M25.9,25.6
	c-0.2,0-0.3,0.1-0.3,0.4v1.9c0,0.3,0.1,0.5,0.3,0.5c0.2,0,0.4-0.2,0.4-0.5V26C26.3,25.7,26.1,25.6,25.9,25.6z M25.9,25.6
	c-0.2,0-0.3,0.1-0.3,0.4v1.9c0,0.3,0.1,0.5,0.3,0.5c0.2,0,0.4-0.2,0.4-0.5V26C26.3,25.7,26.1,25.6,25.9,25.6z M38,20v-1
	c0-2.1-1.7-3.8-3.8-3.8H7.8c-2.1,0-3.8,1.7-3.8,3.8v1c2.1,0.4,3.8,2.3,3.8,4.6c0,2.3-1.6,4.2-3.8,4.6v1c0,2.1,1.7,3.8,3.8,3.8h26.4
	c2.1,0,3.8-1.7,3.8-3.8v-1c-2.1-0.4-3.8-2.3-3.8-4.6C34.2,22.3,35.8,20.4,38,20z M11.6,33.4h-0.9v-1.9h0.9V33.4z M11.6,30.2h-0.9
	v-1.9h0.9V30.2z M11.6,27.1h-0.9v-1.9h0.9V27.1z M11.6,24h-0.9v-1.9h0.9V24z M11.6,20.9h-0.9V19h0.9V20.9z M11.6,17.8h-0.9v-1.9h0.9
	V17.8z M17.8,22.1c0-0.9,0.2-1.5,0.5-1.9c0.3-0.4,0.8-0.6,1.5-0.6c1.3,0,2,0.8,2,2.5c0,0.8-0.2,1.4-0.5,1.8
	c-0.3,0.4-0.8,0.6-1.5,0.6C18.5,24.6,17.8,23.8,17.8,22.1z M19.4,29.3v-0.4l5.7-9.1h1.2v0.4l-5.7,9.1H19.4z M27.4,28.8
	c-0.3,0.4-0.8,0.6-1.5,0.6c-1.3,0-2-0.8-2-2.4c0-0.9,0.2-1.5,0.5-1.9c0.3-0.4,0.8-0.6,1.5-0.6c1.3,0,2,0.8,2,2.5
	C27.9,27.8,27.8,28.4,27.4,28.8z M25.9,25.6c-0.2,0-0.3,0.1-0.3,0.4v1.9c0,0.3,0.1,0.5,0.3,0.5c0.2,0,0.4-0.2,0.4-0.5V26
	C26.3,25.7,26.1,25.6,25.9,25.6z M20.2,23.1v-1.9c0-0.3-0.1-0.4-0.4-0.4c-0.2,0-0.3,0.1-0.3,0.4v1.9c0,0.3,0.1,0.5,0.3,0.5
	C20.1,23.5,20.2,23.4,20.2,23.1z M25.9,25.6c-0.2,0-0.3,0.1-0.3,0.4v1.9c0,0.3,0.1,0.5,0.3,0.5c0.2,0,0.4-0.2,0.4-0.5V26
	C26.3,25.7,26.1,25.6,25.9,25.6z M25.9,25.6c-0.2,0-0.3,0.1-0.3,0.4v1.9c0,0.3,0.1,0.5,0.3,0.5c0.2,0,0.4-0.2,0.4-0.5V26
	C26.3,25.7,26.1,25.6,25.9,25.6z"/>
</svg>
