<?xml version="1.0" encoding="utf-8"?>
<!-- Generator: Adobe Illustrator 24.3.0, SVG Export Plug-In . SVG Version: 6.00 Build 0)  -->
<svg version="1.1" id="Layer_1" xmlns="http://www.w3.org/2000/svg" xmlns:xlink="http://www.w3.org/1999/xlink" x="0px" y="0px"
	 viewBox="0 0 42 40" style="enable-background:new 0 0 42 40;" xml:space="preserve">
<style type="text/css">
	.st0{fill:url(#SVGID_1_);}
</style>
<linearGradient id="SVGID_1_" gradientUnits="userSpaceOnUse" x1="21.8322" y1="36.9" x2="21.8322" y2="3.1">
	<stop  offset="0" style="stop-color:#CA772A"/>
	<stop  offset="0.5" style="stop-color:#F8E887"/>
	<stop  offset="1" style="stop-color:#ECC146"/>
</linearGradient>
<path class="st0" d="M15,28.4L15,28.4c-2.3-2.1-3.1-5.1-3.1-8.4c0-3.3,0.3-6.3,2.5-8.4h3c1.2,0,2.3-1,2.3-2.3v-4
	c0-1.3-1-2.3-2.3-2.3h-6c-1.3,0-2.4,0.7-3,1.8C6.2,8.9,5,14.2,5,20c0,5.8,1.3,11.1,3.4,15.1c0.6,1.1,1.7,1.8,3,1.8h6
	c1.2,0,2.3-1,2.3-2.3v-4c0-1.3-1-2.3-2.3-2.3H15z M22.2,12.9c0,1,0.8,1.9,1.9,1.9c1,0,1.9-0.8,1.9-1.9S25.1,11,24.1,11
	C23.1,11,22.2,11.8,22.2,12.9z M28.6,12.9c0,1,0.8,1.9,1.9,1.9s1.9-0.8,1.9-1.9S31.5,11,30.5,11S28.6,11.8,28.6,12.9z M35,12.9
	c0,1,0.8,1.9,1.9,1.9c1,0,1.9-0.8,1.9-1.9S37.9,11,36.8,11C35.8,11,35,11.8,35,12.9z M22.2,20c0,1,0.8,1.9,1.9,1.9
	c1,0,1.9-0.8,1.9-1.9c0-1-0.8-1.9-1.9-1.9C23.1,18.1,22.2,19,22.2,20z M28.6,20c0,1,0.8,1.9,1.9,1.9s1.9-0.8,1.9-1.9
	c0-1-0.8-1.9-1.9-1.9S28.6,19,28.6,20z M35,20c0,1,0.8,1.9,1.9,1.9c1,0,1.9-0.8,1.9-1.9c0-1-0.8-1.9-1.9-1.9C35.8,18.1,35,19,35,20z
	 M22.2,27.1c0,1,0.8,1.9,1.9,1.9c1,0,1.9-0.8,1.9-1.9s-0.8-1.9-1.9-1.9C23.1,25.3,22.2,26.1,22.2,27.1z M28.6,27.1
	c0,1,0.8,1.9,1.9,1.9s1.9-0.8,1.9-1.9s-0.8-1.9-1.9-1.9S28.6,26.1,28.6,27.1z M35,27.1c0,1,0.8,1.9,1.9,1.9c1,0,1.9-0.8,1.9-1.9
	s-0.8-1.9-1.9-1.9C35.8,25.3,35,26.1,35,27.1z"/>
</svg>
