<?xml version="1.0" encoding="utf-8"?>
<!-- Generator: Adobe Illustrator 24.3.0, SVG Export Plug-In . SVG Version: 6.00 Build 0)  -->
<svg version="1.1" id="Layer_1" xmlns="http://www.w3.org/2000/svg" xmlns:xlink="http://www.w3.org/1999/xlink" x="0px" y="0px"
	 viewBox="0 0 42 40" style="enable-background:new 0 0 42 40;" xml:space="preserve">
<style type="text/css">
	.st0{fill:url(#SVGID_1_);}
</style>
<linearGradient id="SVGID_1_" gradientUnits="userSpaceOnUse" x1="21" y1="36.9" x2="21" y2="3.1">
	<stop  offset="0" style="stop-color:#CA772A"/>
	<stop  offset="0.5" style="stop-color:#F8E887"/>
	<stop  offset="1" style="stop-color:#ECC146"/>
</linearGradient>
<path class="st0" d="M21,18.1c1,0,1.9,0.8,1.9,1.9S22,21.9,21,21.9S19.1,21,19.1,20S20,18.1,21,18.1z M21,3.1
	C11.7,3.1,4.1,10.7,4.1,20S11.7,36.9,21,36.9S37.9,29.3,37.9,20S30.3,3.1,21,3.1z M32.1,12.9l-3.3,1.9c-0.7-1-1.6-1.9-2.6-2.6
	l1.9-3.3C29.7,10,31,11.3,32.1,12.9z M21.6,6.9C23.6,7,25.4,7.5,27,8.3l-1.9,3.3c-1.1-0.5-2.3-0.9-3.5-0.9V6.9z M20.4,6.9v3.8
	c-1.3,0.1-2.4,0.4-3.5,0.9L15,8.3C16.6,7.5,18.4,7,20.4,6.9z M13.9,9l1.9,3.3c-1,0.7-1.9,1.6-2.6,2.6l-3.3-1.9
	C11,11.3,12.3,10,13.9,9z M9.3,14l3.3,1.9c-0.5,1.1-0.9,2.3-0.9,3.5H7.9C8,17.4,8.5,15.6,9.3,14z M7.9,20.6h3.8
	c0.1,1.3,0.4,2.4,0.9,3.5L9.3,26C8.5,24.4,8,22.6,7.9,20.6z M10,27.1l3.3-1.9c0.7,1,1.6,1.9,2.6,2.6l-1.9,3.3
	C12.3,30,11,28.7,10,27.1z M20.4,33.1c-1.9-0.1-3.8-0.6-5.4-1.4l1.9-3.3c1.1,0.5,2.3,0.9,3.5,0.9V33.1z M20.4,25.6v-2.6
	c-1.2-0.2-2.2-1.2-2.4-2.4h-2.6v-1.3h2.6c0.2-1.2,1.2-2.2,2.4-2.4v-2.6h1.3v2.6c1.2,0.2,2.2,1.2,2.4,2.4h2.6v1.3h-2.6
	c-0.2,1.2-1.2,2.2-2.4,2.4v2.6H20.4z M21.6,33.1v-3.8c1.3-0.1,2.4-0.4,3.5-0.9l1.9,3.3C25.4,32.5,23.6,33,21.6,33.1z M28.1,31.1
	l-1.9-3.3c1-0.7,1.9-1.6,2.6-2.6l3.3,1.9C31,28.7,29.7,30,28.1,31.1z M32.7,26l-3.3-1.9c0.5-1.1,0.9-2.3,0.9-3.5h3.8
	C34,22.6,33.5,24.4,32.7,26z M30.4,19.4c-0.1-1.3-0.4-2.4-0.9-3.5l3.3-1.9c0.8,1.6,1.3,3.5,1.4,5.4H30.4z M36,4.4
	c1,0,1.9,0.8,1.9,1.9S37.1,8.1,36,8.1s-1.9-0.8-1.9-1.9S35,4.4,36,4.4z"/>
</svg>
